<svg fill="#dadada" viewBox="0 0 64 64" id="Layer_1_1_" version="1.1" xml:space="preserve" xmlns="http://www.w3.org/2000/svg" xmlns:xlink="http://www.w3.org/1999/xlink" stroke="#0e2a81"><g id="SVGRepo_bgCarrier" stroke-width="0"></g><g id="SVGRepo_tracerCarrier" stroke-linecap="round" stroke-linejoin="round"></g><g id="SVGRepo_iconCarrier"> <g> <path d="M59,19v-6h-4v-1c0-1.654-1.346-3-3-3c-0.352,0-0.686,0.072-1,0.184V6c0-2.757-2.243-5-5-5s-5,2.243-5,5v7h-3 c-2.757,0-5,2.243-5,5v1h-2v-1c0-2.757-2.243-5-5-5H5v6H1v40h26.101c0.464,2.279,2.485,4,4.899,4s4.435-1.721,4.899-4H63V19H59z M45.671,40.755L43.344,33h5.312l-2.327,7.755C46.241,41.048,45.759,41.048,45.671,40.755z M49,31h-6V13h6V31z M46,3 c1.654,0,3,1.346,3,3v5h-6V6C43,4.346,44.346,3,46,3z M35,18c0-1.654,1.346-3,3-3h3v17l2.658,9H39v2h16v-2h-6.656L51,32.147V12 c0-0.551,0.449-1,1-1s1,0.449,1,1v14h2V15h2v38H35v-4c1.103,0,2-0.897,2-2v-2c0-1.103-0.897-2-2-2v-2c1.103,0,2-0.897,2-2v-2 c0-1.103-0.897-2-2-2v-2c1.103,0,2-0.897,2-2v-2c0-1.103-0.897-2-2-2v-2c1.103,0,2-0.897,2-2v-2c0-1.103-0.897-2-2-2V18z M29,47v-2 h6l0.001,2H29z M35.001,23H29v-2h6L35.001,23z M33,25v2h-2v-2H33z M35,29l0.001,2H29v-2H35z M33,33v2h-2v-2H33z M35,37l0.001,2H29 v-2H35z M33,41v2h-2v-2H33z M7,15h19c1.654,0,3,1.346,3,3v1c-1.103,0-2,0.897-2,2v2c0,1.103,0.897,2,2,2v2c-1.103,0-2,0.897-2,2v2 c0,1.103,0.897,2,2,2v2c-1.103,0-2,0.897-2,2v2c0,1.103,0.897,2,2,2v2c-1.103,0-2,0.897-2,2v2c0,1.103,0.897,2,2,2v4H7V15z M61,57 H35v1c0,1.654-1.346,3-3,3s-3-1.346-3-3v-1H3V21h2v34h26v-6h2v6h26V21h2V57z"></path> <rect height="2" width="16" x="39" y="45"></rect> <path d="M9,27h16V17H9V27z M11,19h12v6H11V19z"></path> <rect height="2" width="14" x="9" y="33"></rect> <rect height="2" width="10" x="15" y="37"></rect> <rect height="2" width="4" x="9" y="37"></rect> <rect height="2" width="2" x="23" y="41"></rect> <rect height="2" width="12" x="9" y="41"></rect> <rect height="2" width="10" x="9" y="45"></rect> <rect height="2" width="16" x="9" y="29"></rect> </g> </g></svg>