<svg viewBox="0 0 24 24" width="64px" height="64px" fill="none" xmlns="http://www.w3.org/2000/svg"><g id="SVGRepo_bgCarrier" stroke-width="0"></g><g id="SVGRepo_tracerCarrier" stroke-linecap="round" stroke-linejoin="round"></g><g id="SVGRepo_iconCarrier"> <path fill-rule="evenodd" clip-rule="evenodd" d="M2.34297 13.7926C1.35505 12.7823 0.905678 11.2987 1.0175 9.98196C1.11755 8.80371 1.65409 7.61403 2.73879 6.83466C3.6837 6.15573 4.93272 5.86744 6.42864 6.04754C7.0781 4.75828 7.94339 3.87499 8.95105 3.39952C10.1252 2.84549 11.3664 2.90609 12.4248 3.34576C13.9333 3.97244 15.1899 5.43859 15.4353 7.18022C15.6592 7.23883 15.8785 7.31091 16.092 7.39524C18.2721 8.25634 20.0627 10.5288 19.7773 13.0959C21.8019 13.586 22.9662 15.277 22.9993 17.0091C23.0183 18.007 22.6603 19.0234 21.8787 19.7888C21.0916 20.5597 19.9549 21 18.5526 21L7.17706 21C3.61934 21 1.77602 17.8849 2.0226 15.1821C2.06559 14.7109 2.17109 14.2416 2.34297 13.7926ZM3.49263 12.0511C3.68372 11.8679 3.89412 11.6971 4.12434 11.5414C5.29189 10.7517 6.85927 10.4221 8.77842 10.6806C9.59509 9.07668 10.6876 8.01159 11.9335 7.45344C12.4023 7.24341 12.88 7.11108 13.3557 7.04674C13.1035 6.23131 12.4681 5.52944 11.6575 5.19274C11.0524 4.94134 10.4048 4.925 9.80452 5.20827C9.20058 5.49324 8.51881 6.14215 7.98358 7.45802C7.78195 7.95372 7.25204 8.2312 6.73444 8.12339C5.3125 7.82722 4.42743 8.08408 3.90581 8.45887C3.37744 8.83851 3.07012 9.447 3.01032 10.1512C2.95003 10.8612 3.13075 11.5364 3.49263 12.0511ZM10.3175 12.1095C11.0062 10.4963 11.9034 9.65844 12.7511 9.27867C13.6015 8.89775 14.5189 8.92424 15.3573 9.25539C17.1117 9.94838 18.2154 11.7918 17.6508 13.5041C17.4178 14.2107 17.9363 14.9334 18.6672 14.9563C20.2392 15.0055 20.981 16.0708 20.9996 17.0473C21.0091 17.5436 20.8334 18.0131 20.4793 18.36C20.1306 18.7015 19.5296 19 18.5526 19L7.17706 19C5.0662 19 3.8484 17.1826 4.01433 15.3638C4.09409 14.4895 4.50102 13.7011 5.24487 13.198C5.99008 12.694 7.21156 12.3847 9.0849 12.7589C9.59289 12.8604 10.1116 12.5918 10.3175 12.1095Z" fill="#8accf4"></path> </g></svg>