<svg fill="#207e73" height="64px" width="64px" version="1.1" id="Layer_1" xmlns="http://www.w3.org/2000/svg" xmlns:xlink="http://www.w3.org/1999/xlink" viewBox="0 0 481.479 481.479" xml:space="preserve" stroke="#207e73"><g id="SVGRepo_bgCarrier" stroke-width="0"></g><g id="SVGRepo_tracerCarrier" stroke-linecap="round" stroke-linejoin="round"></g><g id="SVGRepo_iconCarrier"> <g transform="translate(0 -540.36)"> <g> <g> <path d="M476,884.984l-15-7.6l15-7.6c4.9-2.5,6.9-8.5,4.4-13.4s-8.5-6.9-13.4-4.4l-18.1,9.2v-22.1c0-5.5-4.5-10-10-10 s-10,4.5-10,10v22.1l-18.1-9.2c-4.9-2.5-10.9-0.5-13.4,4.4s-0.5,10.9,4.4,13.4l15,7.6l-15,7.6c-4.9,2.5-6.9,8.5-4.4,13.4 c1.8,3.5,5.3,5.5,8.9,5.5c1.5,0,3.1-0.3,4.5-1.1l18.1-9.2v22.1c0,5.5,4.5,10,10,10s10-4.5,10-10v-22.1l18.1,9.2 c1.5,0.7,3,1.1,4.5,1.1c3.6,0,7.2-2,8.9-5.5C482.9,893.484,480.9,887.484,476,884.984z"></path> <path d="M98.3,881.984H241c35,0,68-13.5,92.7-38.1c24.8-24.7,38.5-57.5,38.5-92.5c0-1.4,0-2.7-0.1-4.1c35.5-0.8,75.5-23.3,92-53 c1.9-3.5,1.7-7.7-0.6-10.8c-2.3-3.2-6.2-4.7-10-3.9c-3.2,0.6-6.7,0.6-10.4,0.6c-43.2,0-78.3-35.2-78.3-78.4 c0-13.7,3.5-26.8,10.3-38.9c1.9-3.3,1.7-7.5-0.5-10.6s-6-4.8-9.8-4.2c-41.9,6.7-74,38.2-81.8,78.7c-13.2-4.5-27.3-6.9-42-6.9 c-25.5,0-50.1,7.4-71.3,21.3c-18.6,12.2-33.8,29.1-44.3,49c-8.9-2.7-18.3-4.2-27.1-4.2c-54.2,0-98.3,44.2-98.3,98.4 c0,26.2,10.2,50.8,28.9,69.2C47.4,871.884,72.1,881.984,98.3,881.984z M349,573.284c-2.8,9.2-4.2,18.7-4.2,28.5 c0,51.4,39.6,93.7,89.8,98.1c-16.7,16-42.6,27.4-64.6,27.4c-7.4-40.1-33.2-73.9-68.1-92.4 C305.7,607.084,323.7,583.984,349,573.284z M98.2,705.984c9.1,0,19.4,2.1,28.3,5.8c5,2.1,10.8-0.2,13-5.2 c18.3-41.2,57.1-66.8,101.4-66.8c61.4,0,111.3,50,111.3,111.5c0,61.1-49.9,110.7-111.3,110.7H98.2c-43.2,0-78.3-34.8-78.3-77.6 C19.9,741.184,55,705.984,98.2,705.984z"></path> <path d="M357.6,918.384l-39.2,20l-40-20c-2.8-1.5-6.2-1.4-9,0l-39.2,20l-39.2-20c-2.8-1.4-6.2-1.4-9,0l-40,20l-39.2-20 c-2.9-1.5-6.2-1.5-9.1,0l-39.2,20l-39.2-20c-5-2.5-11-0.5-13.5,4.4c-2.5,5-0.5,11,4.4,13.5l43.7,22.3c2.9,1.5,6.2,1.5,9.1,0 l39.2-20l39.2,20c1.4,0.7,2.9,1.1,4.5,1.1h0c1.5,0,3.1-0.4,4.6-1.1l40-20l39.2,20c2.9,1.5,6.2,1.5,9.1,0l39.2-20l40,20 c2.8,1.5,6.2,1.4,9,0l43.7-22.3c5-2.6,6.9-8.6,4.4-13.5C368.5,917.784,362.5,915.884,357.6,918.384z"></path> <path d="M357.9,973.684l-39.4,19.3l-40.2-19.4c-2.8-1.4-6-1.4-8.8,0l-39.3,19.3l-39.3-19.3c-2.8-1.3-6-1.3-8.8,0l-40.2,19.4 l-39.4-19.3c-2.8-1.4-6-1.4-8.8,0l-39.3,19.3l-39.3-19.3c-5-2.4-11-0.4-13.4,4.6s-0.4,11,4.6,13.4l43.7,21.5c2.8,1.4,6,1.4,8.8,0 l39.3-19.3l39.3,19.3c2.8,1.3,6,1.3,8.8,0l40.2-19.4l39.4,19.3c2.8,1.4,6,1.4,8.8,0l39.4-19.3l40.2,19.4c1.3,0.7,2.8,1,4.3,1 s3-0.3,4.5-1l43.7-21.5c5-2.5,7-8.4,4.6-13.4C368.8,973.284,362.9,971.284,357.9,973.684z"></path> <polygon points="318.5,1014.184 318.5,1014.184 318.5,1014.184 "></polygon> <path d="M34.8,623.584c1.8,3.5,5.3,5.5,8.9,5.5c1.5,0,3.1-0.3,4.5-1.1l18.1-9.2v22.1c0,5.5,4.5,10,10,10s10-4.5,10-10v-22.1 l18.1,9.2c1.5,0.7,3,1.1,4.5,1.1c3.6,0,7.2-2,8.9-5.5c2.5-4.9,0.6-10.9-4.4-13.4l-15-7.6l15-7.6c4.9-2.5,6.9-8.5,4.4-13.4 s-8.5-6.9-13.4-4.4l-18.1,9.2v-22.1c0-5.5-4.5-10-10-10s-10,4.5-10,10v22.1l-18.1-9.2c-4.9-2.5-10.9-0.5-13.4,4.4 s-0.5,10.9,4.4,13.4l15,7.6l-15,7.6C34.3,612.684,32.3,618.684,34.8,623.584z"></path> </g> </g> </g> </g></svg>